<?xml version="1.0" encoding="utf-8"?>

<!DOCTYPE svg PUBLIC "-//W3C//DTD SVG 1.1//EN" "http://www.w3.org/Graphics/SVG/1.1/DTD/svg11.dtd">
<svg version="1.1" id="Layer_1" xmlns="http://www.w3.org/2000/svg" xmlns:xlink="http://www.w3.org/1999/xlink" x="0px" y="0px"
	 viewBox="0 0 654.014 1625.776" enable-background="new 0 0 654.014 1625.776" xml:space="preserve">
<g>
	<path fill="#f3722c" d="M618.455,946.859c-20.108-31.762-54.637-28.628-74.572-34.176c-7.494-2.085-25.167,6.399-23.107,21.195
		c0.468,3.361-0.899,6.69-4.409,8.057c-5.42,2.109-10.847,4.106-16.926,3.799c-14.072-0.711-7.422,18.643-20.406,31.897
		c-7.202,7.352,2.626,17.513,10.984,22.49c4.937,2.94,0.769,7.944-4.196,10.813c-5,2.89-11.553-9.694-16.315-16.556
		c-16.518-23.797,1.334,10.889-44.813-69.862c-5.979-10.461-10.749-21.555-10.063-33.771c0.601-10.707-3.539-19.983-6.506-29.688
		c-4.874-15.94-15.061-26.346-31.292-23.326c-28.453,5.302-13.78,25.115-18.154,41.044c-0.854,3.112-3.761,4.988-4.808,7.975
		c-1.566,4.468-1.005,8.004-4.307,12.122c-7.221,9.006-0.57,7.623-0.663,22.67c-0.039,6.328,4.479,9.025,10.295,11.588
		c6.988,3.079-1.391,8.289,3,12.223c17.781,15.927,11.057,71.679,31.676,83.82c15.236,8.971,63.022,29.19,56.171,40.857
		c-2.808,4.783-11.324,30.57-21.545,44.138c-14.253,18.922-6.555,42.835,5.316,61.237c3.382,5.243-2.254,45.829-9.256,66.643
		c-1.694,5.035-3.413,9.71,1.45,11.573c3.31,1.268,6.647,2.996,10.079,3.292c8.72,0.751,12.658,16.348,13.01,23.654
		c0.362,7.515-2.329,16.193-3.696,23.567c-4.975,26.84-6.849,53.796-15.275,79.91c-8.049,24.947-12.164,24.762-9.759,28.122
		c1.43,1.998,3.94,0.342,6.47,0.293c6.894-0.135,13.603-1.253,20.433-0.132c9.282,1.524,18.198,5.428,27.649,5.446
		c12.67,0.024,9.559,9.314,11.432,18.562c3.413,16.846,17.135,42.561,15.93,74.384c-0.561,14.832-13.868,7.782-10.216,19.936
		c2.164,7.201,1.976,2.278,1.884,39.052c-0.026,10.58-7.478,5.879-8.43,8.695c4.805,2.317,4.946,3.179,1.262,7.212
		c-10.087,11.037-13.777,9.894-24.053,16.104c-3.352,2.025-6.66,4.123-10.056,6.285c-2.194,1.397-1.23,4.797,1.371,4.823
		c8,0.083,25.619,0.087,65.565,0.002c16.269-0.034,26.301-0.086,32.442-0.132c5.185-0.039,9.35-4.332,9.174-9.514
		c-0.085-2.501-0.264-4.951-0.695-7.027c-1.97-9.487-4.946-18.713-2.983-28.816c0.93-4.787,6.927-32.279,11.781-32.264
		c3.295,0.01,2.526-2.087,7.265-9.186c10.05-15.057-11.23-8.628-10.605-28.074c0.231-7.197,0.537-14.387-1.554-21.592
		c-12.039-41.495-9.534-77.62,3.573-80.409c6.925-1.474,13.652-3.632,20.968-3.283c20.391,0.974-20.017-23.52-22.496-75.712
		c-0.91-19.144-4.871-51.152-17.351-65.791c-3.537-4.149-5.33-8.337-4.765-13.526c1.881-17.282-11.405-28.603-11.036-44.663
		c0.559-24.304-0.75-29.552,0.904-36.233c6.457-26.082,4.715-25.46,4.983-65.561c0.176-26.291,0.125-25.677,1.727-25.751
		c2.095-0.096,1.402,2.639,1.659,4.161c1.154,6.844,2.028,13.937,5.191,20.037c9.033,17.423-3.39,38.044,7.207,31.687
		c9.569-5.742,10.37-7.713,14.171-7.06c7.88,1.355,3.957-6.432,14.19-15.13c4.229-3.594,3.467,3.197,4.204,8.429
		c1.618,11.472,14.348-4.05,16.613-10.845c5.821-17.47,6.54-20.08,10.794-21.863c6.975-2.924-0.421-7.544-0.469-10.482
		c-0.206-12.595-2.794-25.108,6.005-36.803C632.725,1011.186,636.788,975.818,618.455,946.859z M420.362,998.836
		c-0.788-2.598-0.79-6.015,1.394-7.667c3.327,0.236,4.524,6.928,6.22,10.175C429.572,1004.4,422.107,1004.587,420.362,998.836z"/>
	<path fill="#f3722c" d="M254.78,284.208l-65.042,34.337c-9.28,4.899-20.659,3.265-28.185-4.046c-55.303-53.723-55.438-57.076-63.543-52.797
		c-8.1,4.276-5.416,6.26,7.751,82.251c1.792,10.339-3.278,20.657-12.558,25.555c-68.183,35.995-71.414,35.087-69.849,44.118
		c1.564,9.025,4.28,7.086,80.62,18.045c10.387,1.491,18.633,9.501,20.424,19.841l12.557,72.47
		c1.528,8.82,13.505,10.543,17.454,2.506c35.22-71.673,32.99-67.801,35.746-71.035l-0.539,14.227
		c-0.083,2.176,2.221,3.625,4.147,2.608c32.806-17.319,30.989-13.187,11.945-25.166c4.434-0.531,0.003-0.846,79.123,10.512
		c3.975,0.571,7.866-1.483,9.637-5.088c4.039-8.22,0.702-8.248-54.616-61.986c-7.527-7.312-9.49-18.638-4.862-28.056l32.438-66.01
		C271.375,288.461,262.699,280.028,254.78,284.208z"/>
	<path fill="#f3722c" d="M574.938,416.303l-67.797-28.516c-9.673-4.068-15.625-13.903-14.745-24.359c6.469-76.83,8.975-79.06,0.527-82.613
		c-8.443-3.551-8.275-0.218-58.682,58.152c-6.858,7.942-18.051,10.565-27.723,6.496c-71.07-29.893-72.417-32.967-78.407-26.03
		c-5.986,6.932-2.765,7.803,37.173,73.78c5.434,8.977,4.47,20.432-2.389,28.374l-48.071,55.666
		c-5.85,6.775,0.413,17.128,9.131,15.085c77.754-18.219,73.345-17.488,77.593-17.408l-11.343,8.606
		c-1.735,1.316-1.394,4.016,0.613,4.861c34.195,14.383,29.848,15.598,27.033-6.723c3.223,3.092,0.656-0.534,42.048,67.845
		c2.08,3.436,6.135,5.142,10.045,4.225c8.918-2.09,6.823-4.687,13.293-81.538c0.88-10.457,8.394-19.157,18.61-21.551l71.61-16.78
		C582.173,431.832,583.192,419.775,574.938,416.303z"/>
	<path fill="#f3722c" d="M464.052,129.177l-72.181-14.125c-10.298-2.015-18.127-10.433-19.393-20.849c-9.299-76.539-7.299-79.232-16.293-80.992
		c-8.989-1.759-8.146,1.47-45.622,68.876c-5.099,9.171-15.524,14.016-25.822,12.001c-75.666-14.807-77.61-17.543-82.063-9.532
		c-4.451,8.005-1.119,8.202,51.407,64.673c7.147,7.684,8.533,19.095,3.434,28.267l-35.739,64.283
		c-4.35,7.824,3.889,16.685,12.009,12.911c72.42-33.659,68.252-32.045,72.428-32.831l-9.354,10.733
		c-1.431,1.641-0.548,4.216,1.589,4.634c36.406,7.124,32.397,9.199,25.1-12.083c3.785,2.372,0.534-0.657,54.973,57.87
		c2.735,2.941,7.053,3.786,10.695,2.093c8.306-3.86,5.726-5.977-3.576-82.538c-1.266-10.417,4.32-20.464,13.836-24.887
		l66.698-30.999C474.296,142.909,472.84,130.897,464.052,129.177z"/>
	<path fill="none" stroke="#83c5be" stroke-width="5.1269" stroke-miterlimit="10" d="M399.203,852.341
		c-23.163-29.393-30.367-70.638-18.54-106.142c5.964-17.905,16.478-34.734,17.458-53.581c0.964-18.55-7.451-36.09-12.943-53.834
		c-15.72-50.792-6.729-108.625,23.67-152.247"/>
	<path fill="none" stroke="#83c5be" stroke-width="5.1269" stroke-miterlimit="10" d="M362.008,854.712
		c16.963-134.222-47.076-190.773-49.797-246.599c-1.409-28.913,11.633-56.545,14.63-85.337
		c7.06-67.83-41.776-133.545-29.725-200.669c6.511-36.27,15.652-72.382,20.862-108.862"/>
	<path fill="none" stroke="#83c5be" stroke-width="5.1269" stroke-miterlimit="10" d="M362.921,904.069
		c-3.014-29.098-46.737-28.146-63.217-47.25c-21.999-25.503,1.254-64.792,7.235-87.865c8.409-32.444,0.308-68.723-21.104-94.507
		c-14.389-17.327-34.792-30.929-41.801-52.333c-13.21-40.341,28.867-87.897,2.86-124.4c-15.366-21.567-55.894-27.424-58.499-56.834"
		/>
</g>
</svg>
