<?xml version="1.0" encoding="UTF-8" standalone="no"?>
<svg
   xmlns:dc="http://purl.org/dc/elements/1.1/"
   xmlns:cc="http://creativecommons.org/ns#"
   xmlns:rdf="http://www.w3.org/1999/02/22-rdf-syntax-ns#"
   xmlns:svg="http://www.w3.org/2000/svg"
   xmlns="http://www.w3.org/2000/svg"
   xmlns:sodipodi="http://sodipodi.sourceforge.net/DTD/sodipodi-0.dtd"
   xmlns:inkscape="http://www.inkscape.org/namespaces/inkscape"
   width="600px"
   height="350px"
   viewBox="0 0 2291.356 1232.5481"
   id="svg6090"
   version="1.1"
   inkscape:version="1.0.2-2 (e86c870879, 2021-01-15)"
   sodipodi:docname="background.svg">
  <defs
     id="defs6092">
    <clipPath
       clipPathUnits="userSpaceOnUse"
       id="clipPath4549">
      <path
         d="m 103.639,162.058 17.962,0 0,-16.597 -17.962,0 0,16.597 z"
         id="path4551"
         inkscape:connector-curvature="0" />
    </clipPath>
    <clipPath
       clipPathUnits="userSpaceOnUse"
       id="clipPath4565">
      <path
         d="m 119.15,148.521 16.815,0 0,-17.972 -16.815,0 0,17.972 z"
         id="path4567"
         inkscape:connector-curvature="0" />
    </clipPath>
    <clipPath
       clipPathUnits="userSpaceOnUse"
       id="clipPath4649">
      <path
         d="m 193.507,141.779 16.134,0 0,-14.597 -16.134,0 0,14.597 z"
         id="path4651"
         inkscape:connector-curvature="0" />
    </clipPath>
    <clipPath
       clipPathUnits="userSpaceOnUse"
       id="clipPath4665">
      <path
         d="m 180.604,129.872 15.104,0 0,-15.806 -15.104,0 0,15.806 z"
         id="path4667"
         inkscape:connector-curvature="0" />
    </clipPath>
    <filter
       style="color-interpolation-filters:sRGB"
       inkscape:label="Drop Shadow"
       id="filter8391">
      <feFlood
         flood-opacity="0.498039"
         flood-color="rgb(0,0,0)"
         result="flood"
         id="feFlood8393" />
      <feComposite
         in="flood"
         in2="SourceGraphic"
         operator="in"
         result="composite1"
         id="feComposite8395" />
      <feGaussianBlur
         in="composite1"
         stdDeviation="3"
         result="blur"
         id="feGaussianBlur8397" />
      <feOffset
         dx="6"
         dy="6"
         result="offset"
         id="feOffset8399" />
      <feComposite
         in="SourceGraphic"
         in2="offset"
         operator="over"
         result="composite2"
         id="feComposite8401" />
    </filter>
    <filter
       style="color-interpolation-filters:sRGB"
       inkscape:label="Drop Shadow"
       id="filter8403">
      <feFlood
         flood-opacity="0.498039"
         flood-color="rgb(0,0,0)"
         result="flood"
         id="feFlood8405" />
      <feComposite
         in="flood"
         in2="SourceGraphic"
         operator="in"
         result="composite1"
         id="feComposite8407" />
      <feGaussianBlur
         in="composite1"
         stdDeviation="3"
         result="blur"
         id="feGaussianBlur8409" />
      <feOffset
         dx="6"
         dy="6"
         result="offset"
         id="feOffset8411" />
      <feComposite
         in="SourceGraphic"
         in2="offset"
         operator="over"
         result="composite2"
         id="feComposite8413" />
    </filter>
  </defs>
  <sodipodi:namedview
     id="base"
     pagecolor="#ffffff"
     bordercolor="#666666"
     borderopacity="1.0"
     inkscape:pageopacity="0.0"
     inkscape:pageshadow="2"
     inkscape:zoom="0.98994949"
     inkscape:cx="421.08763"
     inkscape:cy="314.58749"
     inkscape:document-units="px"
     inkscape:current-layer="layer1"
     showgrid="false"
     inkscape:window-width="1368"
     inkscape:window-height="850"
     inkscape:window-x="-6"
     inkscape:window-y="-6"
     inkscape:window-maximized="1"
     fit-margin-top="0"
     fit-margin-left="0"
     fit-margin-right="0"
     fit-margin-bottom="0"
     inkscape:document-rotation="0" />
  <metadata
     id="metadata6095">
    <rdf:RDF>
      <cc:Work
         rdf:about="">
        <dc:format>image/svg+xml</dc:format>
        <dc:type
           rdf:resource="http://purl.org/dc/dcmitype/StillImage" />
        <dc:title></dc:title>
      </cc:Work>
    </rdf:RDF>
  </metadata>
  <g
     inkscape:label="Layer 1"
     inkscape:groupmode="layer"
     id="layer1"
     transform="translate(1297.1066,14.368706)">
    <g
       id="g8282"
       transform="matrix(-3.3771442,0,0,-4.2343586,1560.4766,1166.9257)">
      <g
         transform="matrix(-6.0173068,0,0,6.0173068,249.48827,-8.6532125)"
         id="g8284"
         style="fill:#acd5e3;fill-opacity:1">
        <path
           inkscape:connector-curvature="0"
           id="path8286"
           style="fill:#acd5e3;fill-opacity:1;fill-rule:nonzero;stroke:none"
           d="m 0,0 -78.1,0 3.83,4.64 -2.5,5.47 4.9,3.49 -1,5.93 5.64,2.1 0.57,5.98 5.99,0.57 2.1,5.64 5.93,-1 3.49,4.9 5.47,-2.5 4.63,3.83 4.64,-3.83 5.47,2.5 3.49,-4.9 5.93,1 2.1,-5.64 5.99,-0.57 0.57,-5.98 5.63,-2.1 -1,-5.93 4.9,-3.49 L -3.83,4.64 0,0 Z" />
      </g>
      <g
         transform="matrix(-6.0173068,0,0,6.0173068,484.4629,226.32141)"
         id="g8288"
         style="fill:#b9dae5;fill-opacity:1">
        <path
           inkscape:connector-curvature="0"
           id="path8290"
           style="fill:#b9dae5;fill-opacity:1;fill-rule:nonzero;stroke:none"
           d="m 0,0 0,-39.05 -39.05,0 3.83,4.64 -2.5,5.471 4.9,3.489 -1,5.93 5.64,2.1 0.57,5.981 5.99,0.569 2.1,5.641 5.93,-1 3.49,4.899 5.47,-2.5 L 0,0 Z" />
      </g>
    </g>
    <g
       transform="matrix(10.553616,0,0,-13.232421,280.77588,1197.8522)"
       id="g8294"
       style="fill:#f3fcd9;fill-opacity:1">
      <path
         inkscape:connector-curvature="0"
         id="path8296"
         style="fill:#f3fcd9;fill-opacity:1;fill-rule:nonzero;stroke:none"
         d="m 0,0 -78.1,0 3.83,4.64 -2.5,5.47 4.9,3.49 -1,5.93 5.64,2.1 0.57,5.98 5.99,0.57 2.1,5.64 5.93,-1 3.49,4.9 5.47,-2.5 4.63,3.83 4.64,-3.83 5.47,2.5 3.49,-4.9 5.93,1 2.1,-5.64 5.99,-0.57 0.57,-5.98 5.63,-2.1 -1,-5.93 4.9,-3.49 L -3.83,4.64 0,0 Z" />
    </g>
    <g
       id="g8276"
       transform="translate(-1454.2857,-5.7142857)">
      <g
         style="fill:#acd5e3;fill-opacity:1"
         id="g8264"
         transform="matrix(-6.0173068,0,0,6.0173068,249.48827,-8.6532125)">
        <path
           d="m 0,0 -78.1,0 3.83,4.64 -2.5,5.47 4.9,3.49 -1,5.93 5.64,2.1 0.57,5.98 5.99,0.57 2.1,5.64 5.93,-1 3.49,4.9 5.47,-2.5 4.63,3.83 4.64,-3.83 5.47,2.5 3.49,-4.9 5.93,1 2.1,-5.64 5.99,-0.57 0.57,-5.98 5.63,-2.1 -1,-5.93 4.9,-3.49 L -3.83,4.64 0,0 Z"
           style="fill:#acd5e3;fill-opacity:1;fill-rule:nonzero;stroke:none"
           id="path8266"
           inkscape:connector-curvature="0" />
      </g>
      <g
         style="fill:#b9dae5;fill-opacity:1"
         id="g8268"
         transform="matrix(-6.0173068,0,0,6.0173068,484.4629,226.32141)">
        <path
           d="m 0,0 0,-39.05 -39.05,0 3.83,4.64 -2.5,5.471 4.9,3.489 -1,5.93 5.64,2.1 0.57,5.981 5.99,0.569 2.1,5.641 5.93,-1 3.49,4.899 5.47,-2.5 L 0,0 Z"
           style="fill:#b9dae5;fill-opacity:1;fill-rule:nonzero;stroke:none"
           id="path8270"
           inkscape:connector-curvature="0" />
      </g>
    </g>
  </g>
</svg>
